<svg width="14" height="16" viewBox="0 0 14 16" fill="none" xmlns="http://www.w3.org/2000/svg">
<path d="M0.2 8.16C0.2 6.12 0.893333 4.38667 2.28 2.96C3.66667 1.52 5.34 0.8 7.3 0.8C8.99333 0.8 10.2333 1.16 11.02 1.88C11.8067 2.6 12.2 3.50667 12.2 4.6V10.9H13.62V12.02H8.24C7.10667 12.02 6.16 11.6467 5.4 10.9C4.64 10.14 4.26 9.23333 4.26 8.18C4.26 7.12667 4.64 6.22667 5.4 5.48C6.16 4.72 7.10667 4.34 8.24 4.34H10.84C10.8133 3.66 10.5067 3.1 9.92 2.66C9.34667 2.20667 8.50667 1.98 7.4 1.98C5.77333 1.98 4.39333 2.58667 3.26 3.8C2.14 5.01333 1.58 6.46667 1.58 8.16C1.58 9.88 2.14 11.3333 3.26 12.52C4.39333 13.6933 5.80667 14.28 7.5 14.28V15.48C5.43333 15.48 3.7 14.7733 2.3 13.36C0.9 11.9467 0.2 10.2133 0.2 8.16ZM6.44 6.22C5.92 6.75333 5.66 7.4 5.66 8.16C5.66 8.92 5.92 9.56667 6.44 10.1C6.96 10.6333 7.6 10.9 8.36 10.9H10.84V5.4H8.4C7.62667 5.4 6.97333 5.67333 6.44 6.22Z" fill="white"/>
</svg>
