<svg width="35" height="35" fill="none" xmlns="http://www.w3.org/2000/svg"><path d="M33.034 1.629A5.551 5.551 0 0029.06 0h-5.363v2.145h5.323c.954 0 1.828.398 2.463 1.033a3.486 3.486 0 011.033 2.463v5.681h2.145v-5.72c0-1.55-.635-2.94-1.628-3.973zM3.516 31.782a3.486 3.486 0 01-1.033-2.463v-5.642H.338v5.681c0 1.55.636 2.94 1.629 3.973 1.072.993 2.463 1.629 4.012 1.629h5.324v-2.145H5.979a3.486 3.486 0 01-2.463-1.033zm28.961-2.424c0 .954-.397 1.828-1.032 2.463a3.486 3.486 0 01-2.463 1.033h-5.284V35h5.323c1.55 0 2.94-.636 3.973-1.63a5.551 5.551 0 001.629-3.972v-5.72h-2.145v5.68zM2.006 1.629A5.551 5.551 0 00.378 5.602v5.68h2.145v-5.68c0-.954.397-1.828 1.033-2.464a3.486 3.486 0 012.463-1.032h5.323V0H5.98C4.43 0 3.04.636 2.006 1.629z" fill="#1AA0E8"/></svg>