<svg width="35" height="35" viewBox="0 0 35 35" fill="none" xmlns="http://www.w3.org/2000/svg">
<path d="M33.0337 1.62883C32.0008 0.595913 30.6103 0 29.0609 0H23.6977V2.14529H29.0212C29.9747 2.14529 30.8487 2.54256 31.4843 3.17821C32.12 3.81385 32.5172 4.68785 32.5172 5.64131V11.3224H34.6625V5.60159C34.6625 4.05221 34.0269 2.66175 33.0337 1.62883Z" fill="#1AA0E8"/>
<path d="M3.5161 31.7817C2.88045 31.1461 2.48318 30.272 2.48318 29.3186V23.6773H0.337891V29.3583C0.337891 30.9077 0.973532 32.2982 1.96672 33.3311C3.03936 34.3243 4.42983 34.9599 5.9792 34.9599H11.3027V32.8146H5.9792C5.02574 32.8146 4.15174 32.4173 3.5161 31.7817Z" fill="#1AA0E8"/>
<path d="M32.4775 29.3583C32.4775 30.3118 32.0802 31.1858 31.4446 31.8214C30.809 32.4571 29.9349 32.8544 28.9815 32.8544H23.6977V34.9996H29.0212C30.5706 34.9996 31.9611 34.364 32.994 33.3708C34.0269 32.3379 34.6228 30.9474 34.6228 29.3981V23.6773H32.4775V29.3583Z" fill="#1AA0E8"/>
<path d="M2.00644 1.62883C0.973525 2.66175 0.377611 4.05221 0.377611 5.60159V11.2826H2.5229V5.60159C2.5229 4.64813 2.92018 3.77412 3.55582 3.13848C4.19146 2.50284 5.06547 2.10556 6.01893 2.10556H11.3424V0H5.9792C4.42983 0 3.03936 0.635641 2.00644 1.62883Z" fill="#1AA0E8"/>
</svg>
