<svg width="35" height="35" fill="none" xmlns="http://www.w3.org/2000/svg"><g clip-path="url(#clip0)" fill="#1AA0E8"><path d="M7.885 27.813A15.4 15.4 0 012.051 15.71 15.4 15.4 0 017.885 3.605 1.025 1.025 0 006.607 2 17.44 17.44 0 000 15.709a17.44 17.44 0 006.607 13.708 1.025 1.025 0 101.278-1.604zM28.393 2a1.025 1.025 0 00-1.278 1.605 15.4 15.4 0 015.834 12.104 15.4 15.4 0 01-5.834 12.104 1.025 1.025 0 001.278 1.604A17.44 17.44 0 0035 15.709 17.44 17.44 0 0028.393 2z"/><path d="M11.302 23.533A9.95 9.95 0 017.52 15.71a9.95 9.95 0 013.782-7.824 1.025 1.025 0 00-1.276-1.605 11.99 11.99 0 00-4.557 9.429 11.99 11.99 0 004.556 9.43 1.025 1.025 0 001.277-1.606zM24.974 6.28a1.025 1.025 0 00-1.276 1.605 9.95 9.95 0 013.782 7.824 9.95 9.95 0 01-3.782 7.824 1.025 1.025 0 101.276 1.605 11.99 11.99 0 004.557-9.43 11.99 11.99 0 00-4.557-9.428zM17.5 10.596a5.133 5.133 0 00-5.127 5.127 5.136 5.136 0 004.102 5.024v11.45a1.025 1.025 0 002.05 0v-11.45a5.136 5.136 0 004.102-5.024c0-2.827-2.3-5.127-5.127-5.127zm0 8.203a3.08 3.08 0 01-3.076-3.076 3.08 3.08 0 013.076-3.077 3.08 3.08 0 013.076 3.077 3.08 3.08 0 01-3.076 3.076z"/></g><defs><clipPath id="clip0"><path fill="#fff" d="M0 0h35v35H0z"/></clipPath></defs></svg>