<svg width="35" height="35" fill="none" xmlns="http://www.w3.org/2000/svg"><g clip-path="url(#clip0)" fill="#1AA0E8"><path d="M31.583 6.29h-2.871V3.417A3.422 3.422 0 0025.294 0H3.419A3.422 3.422 0 000 3.418v21.875a3.422 3.422 0 003.418 3.418H6.29v2.871A3.422 3.422 0 009.708 35h21.875a3.422 3.422 0 003.418-3.418V9.707a3.422 3.422 0 00-3.418-3.418zM3.419 27.343c-1.13 0-2.05-.92-2.05-2.051V3.418c0-1.13.92-2.05 2.05-2.05h21.875c1.13 0 2.05.92 2.05 2.05v21.875c0 1.13-.92 2.05-2.05 2.05H3.419zm30.215 4.238c0 1.13-.92 2.05-2.051 2.05H9.708c-1.13 0-2.05-.92-2.05-2.05V28.71h17.636a3.422 3.422 0 003.418-3.418V7.656h2.871c1.13 0 2.05.92 2.05 2.051v21.875z"/><path d="M9.725 31.24h-.019a.684.684 0 000 1.367h.019a.684.684 0 100-1.367zm21.859 0H11.689a.684.684 0 100 1.367h19.895a.684.684 0 000-1.367zM7.522 2.393h-.018a.684.684 0 100 1.367h.018a.684.684 0 100-1.367zm-1.982 0H3.417a.684.684 0 100 1.367h2.121a.684.684 0 000-1.367zM20.062 13.75a2.316 2.316 0 00-1.088-1.414l-3.344-1.93a2.126 2.126 0 00-.102-.063l-3.335-1.926a2.342 2.342 0 00-3.626 1.955v7.971c0 .028.002.055.005.082a2.34 2.34 0 002.337 2.254 2.34 2.34 0 001.168-.314l3.451-1.993a.706.706 0 00.057-.037l3.364-1.942a2.332 2.332 0 001.113-2.644zm-1.415 1.088a.964.964 0 01-.366.363l-.01.006-3.428 1.978a.698.698 0 00-.056.036l-3.395 1.96a.968.968 0 01-1.454-.837.666.666 0 00-.003-.07v-7.902a.973.973 0 011.555-.782l3.356 1.938a.933.933 0 01.084.052l3.361 1.94a.959.959 0 01.451.586.959.959 0 01-.095.732z"/></g><defs><clipPath id="clip0"><path fill="#fff" d="M0 0h35v35H0z"/></clipPath></defs></svg>