<svg width="14" height="16" fill="none" xmlns="http://www.w3.org/2000/svg"><path d="M.2 8.16c0-2.04.693-3.773 2.08-5.2C3.667 1.52 5.34.8 7.3.8c1.693 0 2.933.36 3.72 1.08.787.72 1.18 1.627 1.18 2.72v6.3h1.42v1.12H8.24c-1.133 0-2.08-.373-2.84-1.12-.76-.76-1.14-1.667-1.14-2.72 0-1.053.38-1.953 1.14-2.7.76-.76 1.707-1.14 2.84-1.14h2.6c-.027-.68-.333-1.24-.92-1.68-.573-.453-1.413-.68-2.52-.68-1.627 0-3.007.607-4.14 1.82-1.12 1.213-1.68 2.667-1.68 4.36 0 1.72.56 3.173 1.68 4.36 1.133 1.173 2.547 1.76 4.24 1.76v1.2c-2.067 0-3.8-.707-5.2-2.12C.9 11.947.2 10.213.2 8.16zm6.24-1.94c-.52.533-.78 1.18-.78 1.94s.26 1.407.78 1.94c.52.533 1.16.8 1.92.8h2.48V5.4H8.4c-.773 0-1.427.273-1.96.82z" fill="#fff"/></svg>