<svg width="14" height="15" fill="none" xmlns="http://www.w3.org/2000/svg"><path d="M10.473 8.777c0 1.812-1.75 2.652-3.428 2.652-2.01 0-3.688-.893-3.688-1.992 0-.49.277-.937.902-.937.955 0 1.045 1.375 2.696 1.375.786 0 1.295-.348 1.295-.804 0-.571-.491-.66-1.286-.857l-1.303-.321c-1.304-.313-2.304-.848-2.304-2.348 0-1.813 1.795-2.482 3.34-2.482 1.687 0 3.392.67 3.392 1.696 0 .518-.348.973-.928.973-.866 0-.893-1.027-2.295-1.027-.786 0-1.286.215-1.286.688 0 .518.51.634 1.188.795l.928.214c1.268.285 2.777.821 2.777 2.375zm3.241 1.937c0-.785-.268-1.509-.714-2.089a6.284 6.284 0 00-7.482-7.482 3.415 3.415 0 00-2.09-.714A3.43 3.43 0 000 3.857c0 .786.268 1.51.714 2.09a6.284 6.284 0 007.482 7.482c.58.446 1.304.714 2.09.714a3.43 3.43 0 003.428-3.429z" fill="#fff"/></svg>