<svg width="248" height="217" fill="none" xmlns="http://www.w3.org/2000/svg"><g clip-path="url(#clip0)" stroke="#DDD" stroke-width="20.667" stroke-linecap="round" stroke-linejoin="round"><path d="M93 207.564c5.707 0 10.333-4.224 10.333-9.435s-4.626-9.435-10.333-9.435-10.333 4.224-10.333 9.435 4.626 9.435 10.333 9.435zm113.667 0c5.707 0 10.333-4.224 10.333-9.435s-4.626-9.435-10.333-9.435c-5.708 0-10.334 4.224-10.334 9.435s4.626 9.435 10.334 9.435zM10.333 9.435h41.334L79.36 140.972c.945 4.522 3.533 8.585 7.311 11.476s8.506 4.428 13.356 4.339h100.44c4.849.089 9.576-1.448 13.355-4.339 3.778-2.891 6.367-6.954 7.311-11.476l16.534-82.42H62"/></g><defs><clipPath id="clip0"><path fill="#fff" d="M0 0h248v217H0z"/></clipPath></defs></svg>