<svg width="13" height="13" fill="none" xmlns="http://www.w3.org/2000/svg"><path d="M13 5.055c0-.235-.25-.328-.438-.36l-3.921-.57L6.883.57C6.813.422 6.68.25 6.5.25s-.313.172-.383.32L4.36 4.125l-3.921.57C.241 4.727 0 4.82 0 5.055c0 .14.102.273.195.375L3.04 8.195l-.672 3.907c-.008.054-.015.101-.015.156 0 .203.101.39.328.39a.66.66 0 00.312-.093L6.5 10.71l3.508 1.844a.634.634 0 00.312.093c.227 0 .32-.187.32-.39 0-.055 0-.102-.007-.156L9.96 8.195l2.836-2.765c.101-.102.203-.235.203-.375z" fill="#a7a7a7"/></svg>